<svg xmlns="http://www.w3.org/2000/svg" width="52px" height="52px" viewBox="0 0 71 75" fill="none">
<path d="M70.5696 18.2905C70.5696 14.9022 67.8134 12.146 64.4251 12.146C62.6856 12.146 61.1135 12.874 59.9945 14.0398L36.016 0.195873C35.5634 -0.0652909 35.0062 -0.0652909 34.5536 0.195873L10.5746 14.0398C9.45561 12.874 7.88406 12.146 6.14449 12.146C2.75622 12.146 0 14.9022 0 18.2905C0 21.1741 1.9973 23.5989 4.68152 24.2572V51.9354C4.68152 52.4578 4.9604 52.9407 5.413 53.2024L29.3841 67.0424C29.2252 67.5875 29.1383 68.1636 29.1383 68.7596C29.1383 72.1473 31.8946 74.9041 35.2828 74.9041C38.6705 74.9041 41.4267 72.1473 41.4267 68.7596C41.4267 68.1642 41.3404 67.5893 41.1816 67.0441L65.1566 53.2024C65.6092 52.9412 65.8881 52.4578 65.8881 51.9354V24.2572C68.5723 23.5989 70.5696 21.1741 70.5696 18.2905ZM2.92595 18.2905C2.92595 16.5155 4.36949 15.0719 6.14449 15.0719C7.91892 15.0719 9.36246 16.5155 9.36246 18.2905C9.36246 20.0649 7.91892 21.509 6.14449 21.509C4.36949 21.509 2.92595 20.0649 2.92595 18.2905ZM35.2828 71.9782C33.5078 71.9782 32.0643 70.5346 32.0643 68.7596C32.0643 66.9852 33.5078 65.5411 35.2828 65.5411C37.0572 65.5411 38.5014 66.9852 38.5014 68.7596C38.5014 70.5346 37.0572 71.9782 35.2828 71.9782ZM39.7163 64.5119C38.5968 63.3443 37.0241 62.6152 35.2828 62.6152C33.5427 62.6152 31.97 63.3438 30.851 64.5102L7.60747 51.0908V24.2572C10.2911 23.5989 12.2884 21.1741 12.2884 18.2905C12.2884 17.6938 12.2015 17.1172 12.0421 16.5709L35.2845 3.15211L58.5275 16.5709C58.3681 17.1172 58.2812 17.6933 58.2812 18.2905C58.2812 21.1741 60.2785 23.5989 62.9622 24.2572V51.0908L39.7163 64.5119ZM64.4251 21.509C62.6507 21.509 61.2066 20.0649 61.2066 18.2905C61.2066 16.5155 62.6507 15.0719 64.4251 15.0719C66.2001 15.0719 67.6437 16.5155 67.6437 18.2905C67.6437 20.0649 66.2001 21.509 64.4251 21.509Z" fill="#01e8fe"></path>
<path d="M55.3281 22.6949L36.0169 11.546C35.5643 11.2848 35.0071 11.2848 34.5545 11.546L15.2432 22.6949C14.7906 22.9566 14.5117 23.4395 14.5117 23.9618V46.2602C14.5117 46.7825 14.7906 47.266 15.2432 47.5271L34.5545 58.6766C34.7808 58.8069 35.0328 58.8726 35.2854 58.8726C35.5385 58.8726 35.7906 58.8069 36.0169 58.6766L55.3281 47.5271C55.7807 47.266 56.0596 46.7825 56.0596 46.2602V23.9618C56.0596 23.4395 55.7807 22.9566 55.3281 22.6949ZM35.2854 14.5022L51.6707 23.9618L35.2854 33.422L18.9006 23.9618L35.2854 14.5022ZM36.7484 54.8757V48.278C36.7484 47.47 36.0934 46.8151 35.2854 46.8151C34.4779 46.8151 33.823 47.47 33.823 48.278V54.8757L17.4377 45.4155V26.4957L34.5545 36.3782C34.7808 36.5085 35.0328 36.5743 35.2854 36.5743C35.5385 36.5743 35.7906 36.5085 36.0169 36.3782L53.1337 26.4957V45.4155L36.7484 54.8757Z" fill="#01e8fe"></path>
<path d="M35.2811 40.2314C34.8948 40.2314 34.5187 40.3875 34.245 40.6601C33.973 40.9321 33.8164 41.3092 33.8164 41.6944C33.8164 42.079 33.973 42.4562 34.245 42.7282C34.5187 43.0008 34.8948 43.1574 35.2811 43.1574C35.6657 43.1574 36.0434 43.0008 36.3155 42.7282C36.5875 42.4562 36.7441 42.079 36.7441 41.6944C36.7441 41.3092 36.5875 40.9321 36.3155 40.6601C36.0434 40.3875 35.6657 40.2314 35.2811 40.2314Z" fill="#01e8fe"></path>
</svg>